<svg width="40" height="40" viewBox="0 0 40 40" fill="none" xmlns="http://www.w3.org/2000/svg">
<path d="M30.5037 10.5291C30.2637 10.2889 29.9908 10.1687 29.6865 10.1681C29.6217 10.1681 29.5264 10.1844 29.3976 10.2163L19.8786 12.572L23.9888 1.44227C24.0688 1.28204 24.1093 1.13799 24.1093 1.00959C24.1093 0.7373 24.0047 0.501047 23.7966 0.300662C23.5883 0.100024 23.3319 0 23.0276 0H15.1431C14.8867 0 14.6625 0.0719871 14.47 0.216214C14.2777 0.360609 14.1493 0.544997 14.0854 0.769126L9.25377 20.601C9.17353 20.9853 9.27768 21.2979 9.56622 21.5385C9.77444 21.7153 10.0226 21.8028 10.3112 21.8028C10.4395 21.8028 10.5357 21.7953 10.5997 21.7792L20.3592 19.3511L15.6237 38.7743C15.5597 39.0307 15.5956 39.2709 15.732 39.4952C15.8684 39.7199 16.0728 39.872 16.3451 39.9521C16.5053 39.9838 16.6178 39.9999 16.6818 39.9999C17.1465 39.9999 17.4828 39.8 17.6914 39.3991L30.672 11.5866C30.8484 11.2021 30.7927 10.8494 30.5037 10.5291Z" fill="#151725"/>
</svg>
